<svg version="1.1" id="Layer_1" xmlns="http://www.w3.org/2000/svg" xmlns:xlink="http://www.w3.org/1999/xlink" x="0px" y="0px"
	 width="100%" viewBox="0 0 303 370" enable-background="new 0 0 303 370" xml:space="preserve">
<path fill="#FFFEFE" opacity="1.000000" stroke="none" 
	d="
M154.000000,371.000000 
	C103.016670,371.000000 52.033348,371.000000 1.025010,371.000000 
	C1.025010,247.723663 1.025010,124.447327 1.025010,1.085493 
	C101.909920,1.085493 202.819931,1.085493 303.864990,1.085493 
	C303.864990,124.333237 303.864990,247.666595 303.864990,371.000000 
	C256.906555,371.000000 209.921936,371.000000 162.650772,370.652161 
	C174.329605,368.648773 185.010925,363.952240 194.721771,356.836609 
	C212.494522,343.813599 225.211487,326.612518 234.653137,307.063202 
	C246.541946,282.446991 250.829025,256.786743 241.947525,230.105148 
	C240.831039,226.751022 241.115997,224.371277 243.159851,221.481506 
	C254.064560,206.063461 257.705750,188.832169 254.812561,170.288956 
	C253.554062,162.222809 250.636688,154.744827 244.329727,148.708282 
	C241.528168,151.814774 239.206650,154.649521 236.607117,157.201019 
	C233.790665,159.965439 231.953262,162.464325 234.950302,166.430862 
	C236.263870,168.169312 236.681335,170.749222 237.037231,173.020462 
	C239.521698,188.876099 235.877213,203.170898 225.248749,215.288925 
	C220.825180,220.332428 220.219543,224.925323 222.914032,231.176086 
	C225.499771,237.174561 227.470642,243.842529 227.844055,250.323883 
	C230.081497,289.158173 213.169312,319.668823 183.391983,342.579346 
	C163.052856,358.228210 151.513443,355.092010 137.276733,341.081116 
	C113.183708,317.370209 88.705917,294.018677 65.385689,269.566345 
	C51.989231,255.519516 44.802357,238.178940 47.871994,217.962738 
	C49.023209,210.381012 52.237568,203.746750 56.920231,197.699753 
	C60.198654,193.466125 59.727207,188.183212 56.159691,185.112381 
	C52.530373,181.988342 47.473877,182.316437 43.536488,185.937820 
	C42.715523,186.692871 41.911819,187.466690 40.507114,188.790939 
	C38.727669,178.088364 39.459270,168.323654 43.409206,158.962326 
	C47.495407,149.278061 54.844772,142.373520 63.393318,136.538696 
	C68.066017,133.349335 69.097466,128.096985 66.271179,123.914871 
	C63.526817,119.853989 58.454311,118.817345 53.888195,121.384216 
	C27.695707,136.108551 14.120164,172.010941 25.357750,199.711807 
	C28.641022,207.805161 29.678602,215.162857 29.372869,223.779846 
	C28.495663,248.503708 39.289600,268.920807 56.089924,286.269592 
	C73.352020,304.095245 90.747643,321.813934 108.652664,338.987396 
	C122.087975,351.873749 134.694504,366.283569 154.000000,371.000000 
M195.768417,220.972824 
	C196.621231,221.486557 197.471939,222.003784 198.327225,222.513351 
	C201.731873,224.541809 204.840393,224.166214 206.987869,220.794357 
	C209.172455,217.364273 207.975052,214.353516 204.773682,212.208023 
	C196.477646,206.648224 188.057175,201.271179 179.848160,195.587479 
	C178.505692,194.658005 177.125351,192.481232 177.227875,190.981110 
	C177.828857,182.187607 178.761154,173.410904 179.850555,164.662018 
	C180.046707,163.086777 181.135788,161.158737 182.419159,160.254257 
	C196.091232,150.618744 211.131714,144.153000 227.782806,141.968353 
	C247.944138,139.323151 267.598541,141.762527 286.715271,148.646408 
	C287.184845,148.815491 287.683167,148.914261 288.137207,149.115479 
	C291.969177,150.813858 295.095001,149.983856 296.883636,146.154282 
	C298.503906,142.685074 296.753204,138.954254 292.226898,137.758759 
	C280.695374,134.713028 269.154724,131.130661 257.381561,129.681412 
	C225.773026,125.790451 196.937103,133.555573 171.629761,153.170212 
	C169.726196,154.645584 168.330002,157.680939 168.022064,160.155869 
	C166.543381,172.040619 165.636444,183.995514 164.257339,195.894318 
	C163.889450,199.068527 164.797897,201.012466 167.574814,202.237473 
	C176.284805,206.079895 179.324982,213.651749 181.428940,222.230469 
	C184.676651,235.472794 181.665848,246.307892 170.079071,253.928299 
	C163.018295,258.572052 155.759796,263.040802 148.165894,266.710205 
	C141.622665,269.871918 134.479477,271.792236 127.600769,274.259216 
	C123.708328,275.655151 121.877068,278.437286 123.000130,282.421844 
	C124.153931,286.515472 127.350975,287.585999 131.284653,286.695618 
	C132.578049,286.402893 133.863098,285.999176 135.088882,285.493317 
	C147.639709,280.314301 160.177521,275.103760 173.199966,269.702484 
	C173.080017,270.949860 173.416779,272.991852 172.658218,274.472778 
	C165.606491,288.239655 158.484512,301.973938 151.121811,315.576355 
	C148.233810,320.911835 148.150177,324.499664 151.839890,326.965790 
	C155.448395,329.377686 158.473633,328.200714 161.900330,322.919891 
	C163.075150,321.109375 164.090103,319.189331 165.096939,317.276581 
	C169.590805,308.739288 174.045990,300.181610 178.542694,291.645813 
	C179.085129,290.616150 179.794678,289.674530 180.426773,288.692108 
	C180.942261,288.807526 181.457748,288.922943 181.973236,289.038330 
	C181.557465,295.941132 181.155487,302.844788 180.720261,309.746307 
	C180.490479,313.389954 181.950745,316.075684 185.548981,316.856842 
	C189.364563,317.685242 191.959244,315.836273 193.152908,312.111877 
	C193.406586,311.320343 193.644211,310.517181 193.802933,309.702576 
	C196.098175,297.922821 194.533157,286.560303 190.283432,275.428497 
	C189.492096,273.355682 188.529160,270.665192 189.198914,268.825226 
	C194.829422,253.357010 196.489670,237.496613 194.927399,221.075500 
	C194.927399,221.075500 195.047882,220.946167 195.768417,220.972824 
M143.783661,88.066284 
	C156.637085,85.163078 166.479523,90.116241 174.659912,99.710182 
	C175.535309,100.736862 177.589722,101.893677 178.555267,101.534256 
	C189.432495,97.485275 200.203659,93.151306 212.249161,88.402702 
	C206.571518,80.973442 201.377182,74.176605 196.001740,67.142792 
	C209.039856,52.173450 220.868683,36.074394 227.131882,16.014490 
	C215.179138,13.591254 203.653152,11.144179 192.060150,9.072220 
	C190.880066,8.861310 188.631195,10.597037 188.004974,11.950662 
	C182.352371,24.169201 174.699478,34.990215 165.664581,44.887665 
	C164.892288,45.733685 163.881058,46.361584 161.940567,47.933441 
	C167.742279,33.831882 169.307556,20.668386 166.815201,7.126787 
	C166.555557,5.716166 164.991089,3.465352 163.984314,3.439153 
	C153.533966,3.167209 143.073822,3.271791 132.325882,3.271791 
	C132.438904,4.934230 132.509399,6.055914 132.592239,7.176687 
	C133.579819,20.539705 133.500488,33.792957 128.818695,46.622356 
	C127.392036,50.531757 125.027870,53.110847 121.141312,55.126808 
	C100.338692,65.917107 85.024857,81.885262 78.214729,104.654556 
	C71.928696,125.671547 72.834724,147.099060 76.891060,168.447708 
	C78.111145,174.869095 82.340485,178.781723 88.589539,179.905350 
	C92.430321,180.595978 96.552155,180.633438 100.421173,180.079620 
	C110.385071,178.653381 115.585091,170.970200 112.744385,161.279709 
	C109.380348,149.803955 109.146149,138.311646 111.009087,126.695511 
	C114.067345,107.626091 123.136253,93.408028 143.783661,88.066284 
M221.774780,101.201118 
	C203.482361,103.483711 185.837296,107.854248 170.125214,117.647522 
	C165.856369,111.965775 161.993347,106.562950 157.845444,101.388474 
	C154.691757,97.454292 150.805908,96.781738 147.945663,99.217125 
	C145.065094,101.669830 145.567917,105.164932 148.540710,109.329010 
	C152.775269,115.260468 157.178406,121.202232 160.396729,127.691475 
	C163.566849,134.083557 166.340836,135.205872 172.509232,131.151367 
	C177.630524,127.785118 182.886536,124.427475 188.496338,122.035851 
	C209.156235,113.227890 231.056473,111.514618 253.143387,112.379646 
	C265.931732,112.880501 278.775299,114.359230 290.129181,121.261200 
	C293.701111,123.432556 296.806274,123.354225 299.291626,119.918839 
	C301.450623,116.934509 300.312622,112.636795 296.227570,110.780609 
	C289.617065,107.776901 282.851807,104.769432 275.835388,103.071144 
	C258.318909,98.831329 240.483627,99.466042 221.774780,101.201118 
M136.381851,130.176865 
	C134.649338,127.741951 133.125610,125.117531 131.131165,122.920387 
	C128.671509,120.210754 125.480095,119.934059 122.661255,122.275093 
	C120.009651,124.477242 119.899475,127.429192 121.682228,130.360703 
	C122.284370,131.350845 123.087479,132.216293 123.742554,133.177048 
	C134.324036,148.696243 133.782928,165.479446 130.295349,181.132202 
	C121.554016,183.254379 113.950729,184.669403 106.650902,187.024887 
	C101.833855,188.579208 100.251518,192.521454 102.117760,195.907135 
	C104.368134,199.989716 107.739189,199.811951 111.533272,198.062805 
	C118.909752,194.662079 126.445740,193.575623 134.188065,196.978180 
	C135.186310,197.416870 136.306320,197.578430 137.770798,197.977631 
	C146.107086,175.217667 148.749115,152.929321 136.381851,130.176865 
M60.423210,62.008839 
	C67.719254,64.084526 75.079758,65.963173 82.283928,68.319740 
	C85.839310,69.482750 88.733383,69.160095 90.460533,65.946083 
	C92.270836,62.577343 91.366005,59.350067 87.841774,57.470058 
	C78.293106,52.376305 68.124817,49.346939 57.248283,50.074795 
	C55.248787,50.208603 52.453285,52.682838 51.821587,54.652813 
	C51.287094,56.319645 52.931961,59.208755 54.415825,60.814396 
	C55.396767,61.875839 57.798447,61.624294 60.423210,62.008839 
M49.329536,75.042694 
	C45.694019,74.710846 42.058403,74.117172 38.423008,74.118469 
	C34.541416,74.119858 32.045319,76.410362 32.116428,80.335861 
	C32.182774,83.998398 34.626209,85.489334 38.255180,86.245651 
	C46.316570,87.925751 54.333923,89.930573 62.215015,92.313126 
	C65.997734,93.456703 69.089211,93.852470 71.314621,90.123711 
	C73.245132,86.889069 71.855652,83.149605 67.497993,81.307396 
	C61.864746,78.925926 55.965179,77.174431 49.329536,75.042694 
z"/>
<path fill="#CF338B" opacity="1.000000" stroke="none" 
	d="
M154.444168,371.000000 
	C134.694504,366.283569 122.087975,351.873749 108.652664,338.987396 
	C90.747643,321.813934 73.352020,304.095245 56.089924,286.269592 
	C39.289600,268.920807 28.495663,248.503708 29.372869,223.779846 
	C29.678602,215.162857 28.641022,207.805161 25.357750,199.711807 
	C14.120164,172.010941 27.695707,136.108551 53.888195,121.384216 
	C58.454311,118.817345 63.526817,119.853989 66.271179,123.914871 
	C69.097466,128.096985 68.066017,133.349335 63.393318,136.538696 
	C54.844772,142.373520 47.495407,149.278061 43.409206,158.962326 
	C39.459270,168.323654 38.727669,178.088364 40.507114,188.790939 
	C41.911819,187.466690 42.715523,186.692871 43.536488,185.937820 
	C47.473877,182.316437 52.530373,181.988342 56.159691,185.112381 
	C59.727207,188.183212 60.198654,193.466125 56.920231,197.699753 
	C52.237568,203.746750 49.023209,210.381012 47.871994,217.962738 
	C44.802357,238.178940 51.989231,255.519516 65.385689,269.566345 
	C88.705917,294.018677 113.183708,317.370209 137.276733,341.081116 
	C151.513443,355.092010 163.052856,358.228210 183.391983,342.579346 
	C213.169312,319.668823 230.081497,289.158173 227.844055,250.323883 
	C227.470642,243.842529 225.499771,237.174561 222.914032,231.176086 
	C220.219543,224.925323 220.825180,220.332428 225.248749,215.288925 
	C235.877213,203.170898 239.521698,188.876099 237.037231,173.020462 
	C236.681335,170.749222 236.263870,168.169312 234.950302,166.430862 
	C231.953262,162.464325 233.790665,159.965439 236.607117,157.201019 
	C239.206650,154.649521 241.528168,151.814774 244.329727,148.708282 
	C250.636688,154.744827 253.554062,162.222809 254.812561,170.288956 
	C257.705750,188.832169 254.064560,206.063461 243.159851,221.481506 
	C241.115997,224.371277 240.831039,226.751022 241.947525,230.105148 
	C250.829025,256.786743 246.541946,282.446991 234.653137,307.063202 
	C225.211487,326.612518 212.494522,343.813599 194.721771,356.836609 
	C185.010925,363.952240 174.329605,368.648773 162.182114,370.652161 
	C159.629440,371.000000 157.258896,371.000000 154.444168,371.000000 
z"/>
<path fill="#CE328A" opacity="1.000000" stroke="none" 
	d="
M143.371719,88.123993 
	C123.136253,93.408028 114.067345,107.626091 111.009087,126.695511 
	C109.146149,138.311646 109.380348,149.803955 112.744385,161.279709 
	C115.585091,170.970200 110.385071,178.653381 100.421173,180.079620 
	C96.552155,180.633438 92.430321,180.595978 88.589539,179.905350 
	C82.340485,178.781723 78.111145,174.869095 76.891060,168.447708 
	C72.834724,147.099060 71.928696,125.671547 78.214729,104.654556 
	C85.024857,81.885262 100.338692,65.917107 121.141312,55.126808 
	C125.027870,53.110847 127.392036,50.531757 128.818695,46.622356 
	C133.500488,33.792957 133.579819,20.539705 132.592239,7.176687 
	C132.509399,6.055914 132.438904,4.934230 132.325882,3.271791 
	C143.073822,3.271791 153.533966,3.167209 163.984314,3.439153 
	C164.991089,3.465352 166.555557,5.716166 166.815201,7.126787 
	C169.307556,20.668386 167.742279,33.831882 161.940567,47.933441 
	C163.881058,46.361584 164.892288,45.733685 165.664581,44.887665 
	C174.699478,34.990215 182.352371,24.169201 188.004974,11.950662 
	C188.631195,10.597037 190.880066,8.861310 192.060150,9.072220 
	C203.653152,11.144179 215.179138,13.591254 227.131882,16.014490 
	C220.868683,36.074394 209.039856,52.173450 196.001740,67.142792 
	C201.377182,74.176605 206.571518,80.973442 212.249161,88.402702 
	C200.203659,93.151306 189.432495,97.485275 178.555267,101.534256 
	C177.589722,101.893677 175.535309,100.736862 174.659912,99.710182 
	C166.479523,90.116241 156.637085,85.163078 143.371719,88.123993 
z"/>
<path fill="#CF348B" opacity="1.000000" stroke="none" 
	d="
M194.807663,221.205505 
	C196.489670,237.496613 194.829422,253.357010 189.198914,268.825226 
	C188.529160,270.665192 189.492096,273.355682 190.283432,275.428497 
	C194.533157,286.560303 196.098175,297.922821 193.802933,309.702576 
	C193.644211,310.517181 193.406586,311.320343 193.152908,312.111877 
	C191.959244,315.836273 189.364563,317.685242 185.548981,316.856842 
	C181.950745,316.075684 180.490479,313.389954 180.720261,309.746307 
	C181.155487,302.844788 181.557465,295.941132 181.973236,289.038330 
	C181.457748,288.922943 180.942261,288.807526 180.426773,288.692108 
	C179.794678,289.674530 179.085129,290.616150 178.542694,291.645813 
	C174.045990,300.181610 169.590805,308.739288 165.096939,317.276581 
	C164.090103,319.189331 163.075150,321.109375 161.900330,322.919891 
	C158.473633,328.200714 155.448395,329.377686 151.839890,326.965790 
	C148.150177,324.499664 148.233810,320.911835 151.121811,315.576355 
	C158.484512,301.973938 165.606491,288.239655 172.658218,274.472778 
	C173.416779,272.991852 173.080017,270.949860 173.199966,269.702484 
	C160.177521,275.103760 147.639709,280.314301 135.088882,285.493317 
	C133.863098,285.999176 132.578049,286.402893 131.284653,286.695618 
	C127.350975,287.585999 124.153931,286.515472 123.000130,282.421844 
	C121.877068,278.437286 123.708328,275.655151 127.600769,274.259216 
	C134.479477,271.792236 141.622665,269.871918 148.165894,266.710205 
	C155.759796,263.040802 163.018295,258.572052 170.079071,253.928299 
	C181.665848,246.307892 184.676651,235.472794 181.428940,222.230469 
	C179.324982,213.651749 176.284805,206.079895 167.574814,202.237473 
	C164.797897,201.012466 163.889450,199.068527 164.257339,195.894318 
	C165.636444,183.995514 166.543381,172.040619 168.022064,160.155869 
	C168.330002,157.680939 169.726196,154.645584 171.629761,153.170212 
	C196.937103,133.555573 225.773026,125.790451 257.381561,129.681412 
	C269.154724,131.130661 280.695374,134.713028 292.226898,137.758759 
	C296.753204,138.954254 298.503906,142.685074 296.883636,146.154282 
	C295.095001,149.983856 291.969177,150.813858 288.137207,149.115479 
	C287.683167,148.914261 287.184845,148.815491 286.715271,148.646408 
	C267.598541,141.762527 247.944138,139.323151 227.782806,141.968353 
	C211.131714,144.153000 196.091232,150.618744 182.419159,160.254257 
	C181.135788,161.158737 180.046707,163.086777 179.850555,164.662018 
	C178.761154,173.410904 177.828857,182.187607 177.227875,190.981110 
	C177.125351,192.481232 178.505692,194.658005 179.848160,195.587479 
	C188.057175,201.271179 196.477646,206.648224 204.773682,212.208023 
	C207.975052,214.353516 209.172455,217.364273 206.987869,220.794357 
	C204.840393,224.166214 201.731873,224.541809 198.327225,222.513351 
	C197.471939,222.003784 196.621231,221.486557 195.350082,220.764008 
	C194.728607,220.596741 194.525452,220.638260 194.322311,220.679779 
	C194.484100,220.855011 194.645889,221.030258 194.807663,221.205505 
z"/>
<path fill="#CF348B" opacity="1.000000" stroke="none" 
	d="
M222.224976,101.158722 
	C240.483627,99.466042 258.318909,98.831329 275.835388,103.071144 
	C282.851807,104.769432 289.617065,107.776901 296.227570,110.780609 
	C300.312622,112.636795 301.450623,116.934509 299.291626,119.918839 
	C296.806274,123.354225 293.701111,123.432556 290.129181,121.261200 
	C278.775299,114.359230 265.931732,112.880501 253.143387,112.379646 
	C231.056473,111.514618 209.156235,113.227890 188.496338,122.035851 
	C182.886536,124.427475 177.630524,127.785118 172.509232,131.151367 
	C166.340836,135.205872 163.566849,134.083557 160.396729,127.691475 
	C157.178406,121.202232 152.775269,115.260468 148.540710,109.329010 
	C145.567917,105.164932 145.065094,101.669830 147.945663,99.217125 
	C150.805908,96.781738 154.691757,97.454292 157.845444,101.388474 
	C161.993347,106.562950 165.856369,111.965775 170.125214,117.647522 
	C185.837296,107.854248 203.482361,103.483711 222.224976,101.158722 
z"/>
<path fill="#CF358C" opacity="1.000000" stroke="none" 
	d="
M136.588196,130.480713 
	C148.749115,152.929321 146.107086,175.217667 137.770798,197.977631 
	C136.306320,197.578430 135.186310,197.416870 134.188065,196.978180 
	C126.445740,193.575623 118.909752,194.662079 111.533272,198.062805 
	C107.739189,199.811951 104.368134,199.989716 102.117760,195.907135 
	C100.251518,192.521454 101.833855,188.579208 106.650902,187.024887 
	C113.950729,184.669403 121.554016,183.254379 130.295349,181.132202 
	C133.782928,165.479446 134.324036,148.696243 123.742554,133.177048 
	C123.087479,132.216293 122.284370,131.350845 121.682228,130.360703 
	C119.899475,127.429192 120.009651,124.477242 122.661255,122.275093 
	C125.480095,119.934059 128.671509,120.210754 131.131165,122.920387 
	C133.125610,125.117531 134.649338,127.741951 136.588196,130.480713 
z"/>
<path fill="#CF348B" opacity="1.000000" stroke="none" 
	d="
M59.993629,61.984711 
	C57.798447,61.624294 55.396767,61.875839 54.415825,60.814396 
	C52.931961,59.208755 51.287094,56.319645 51.821587,54.652813 
	C52.453285,52.682838 55.248787,50.208603 57.248283,50.074795 
	C68.124817,49.346939 78.293106,52.376305 87.841774,57.470058 
	C91.366005,59.350067 92.270836,62.577343 90.460533,65.946083 
	C88.733383,69.160095 85.839310,69.482750 82.283928,68.319740 
	C75.079758,65.963173 67.719254,64.084526 59.993629,61.984711 
z"/>
<path fill="#CF348C" opacity="1.000000" stroke="none" 
	d="
M49.754913,75.097183 
	C55.965179,77.174431 61.864746,78.925926 67.497993,81.307396 
	C71.855652,83.149605 73.245132,86.889069 71.314621,90.123711 
	C69.089211,93.852470 65.997734,93.456703 62.215015,92.313126 
	C54.333923,89.930573 46.316570,87.925751 38.255180,86.245651 
	C34.626209,85.489334 32.182774,83.998398 32.116428,80.335861 
	C32.045319,76.410362 34.541416,74.119858 38.423008,74.118469 
	C42.058403,74.117172 45.694019,74.710846 49.754913,75.097183 
z"/>
<path fill="#FFFEFE" opacity="1.000000" stroke="none" 
	d="
M194.867523,221.140503 
	C194.645889,221.030258 194.484100,220.855011 194.322311,220.679779 
	C194.525452,220.638260 194.728607,220.596741 194.989807,220.750687 
	C195.047882,220.946167 194.927399,221.075500 194.867523,221.140503 
z"/>
</svg>