<svg version="1.1" id="Layer_1" xmlns="http://www.w3.org/2000/svg" xmlns:xlink="http://www.w3.org/1999/xlink" x="0px" y="0px"
	 width="100%" viewBox="0 0 382 350" enable-background="new 0 0 382 350" xml:space="preserve">
<path fill="#FEFFFF" opacity="1.000000" stroke="none" 
	d="
M221.000000,351.000000 
	C147.358322,351.000000 74.216637,351.000000 1.037477,351.000000 
	C1.037477,234.398163 1.037477,117.796318 1.037477,1.097235 
	C128.224960,1.097235 255.450027,1.097235 382.837524,1.097235 
	C382.837524,117.666489 382.837524,234.333221 382.837524,351.000000 
	C329.129730,351.000000 275.314880,351.000000 221.000000,351.000000 
M39.810394,213.683884 
	C41.028591,218.144669 42.129982,222.641235 43.483860,227.060455 
	C52.590366,256.785004 69.297165,281.410736 93.502731,300.879730 
	C114.894066,318.085205 139.363800,328.442657 166.449921,332.415619 
	C182.479996,334.766876 198.455994,334.160309 214.500122,331.217041 
	C239.522812,326.626678 262.068542,316.684387 281.476227,300.501221 
	C320.831116,267.684967 339.788971,225.610809 337.239075,174.067734 
	C336.384705,156.797546 332.871613,140.150238 325.792877,124.534676 
	C302.005066,72.059547 261.308289,41.313316 204.249481,33.688271 
	C180.022736,30.450733 155.999893,33.877148 132.864838,42.772034 
	C76.122238,64.588219 36.766678,121.303551 37.021599,182.097763 
	C37.064602,192.353455 38.724098,202.602371 39.810394,213.683884 
z"/>
<path fill="#067D99" opacity="1.000000" stroke="none" 
	d="
M39.723557,213.269150 
	C38.724098,202.602371 37.064602,192.353455 37.021599,182.097763 
	C36.766678,121.303551 76.122238,64.588219 132.864838,42.772034 
	C155.999893,33.877148 180.022736,30.450733 204.249481,33.688271 
	C261.308289,41.313316 302.005066,72.059547 325.792877,124.534676 
	C332.871613,140.150238 336.384705,156.797546 337.239075,174.067734 
	C339.788971,225.610809 320.831116,267.684967 281.476227,300.501221 
	C262.068542,316.684387 239.522812,326.626678 214.500122,331.217041 
	C198.455994,334.160309 182.479996,334.766876 166.449921,332.415619 
	C139.363800,328.442657 114.894066,318.085205 93.502731,300.879730 
	C69.297165,281.410736 52.590366,256.785004 43.483860,227.060455 
	C42.129982,222.641235 41.028591,218.144669 39.723557,213.269150 
M223.615845,56.718201 
	C207.428818,52.121548 190.876862,50.380756 174.216187,52.277302 
	C138.850464,56.303123 109.069405,71.574913 86.515518,99.297356 
	C55.715984,137.155045 46.998989,180.353012 63.457325,226.024033 
	C82.493904,278.849609 121.514778,308.810364 178.046738,314.121399 
	C201.896408,316.362000 224.954178,312.108765 246.064438,300.679230 
	C292.001282,275.808167 316.938934,237.473236 318.359741,184.691391 
	C319.208923,153.143692 309.038757,125.318153 289.501068,100.807503 
	C272.425751,79.385971 250.477982,65.056236 223.615845,56.718201 
z"/>
<path fill="#FBFDFD" opacity="1.000000" stroke="none" 
	d="
M224.012512,56.809845 
	C250.477982,65.056236 272.425751,79.385971 289.501068,100.807503 
	C309.038757,125.318153 319.208923,153.143692 318.359741,184.691391 
	C316.938934,237.473236 292.001282,275.808167 246.064438,300.679230 
	C224.954178,312.108765 201.896408,316.362000 178.046738,314.121399 
	C121.514778,308.810364 82.493904,278.849609 63.457325,226.024033 
	C46.998989,180.353012 55.715984,137.155045 86.515518,99.297356 
	C109.069405,71.574913 138.850464,56.303123 174.216187,52.277302 
	C190.876862,50.380756 207.428818,52.121548 224.012512,56.809845 
M155.539291,177.294098 
	C151.864899,178.155945 148.204468,179.666748 144.513260,179.746048 
	C136.551086,179.917099 132.385315,173.094421 136.180679,166.116852 
	C140.043869,159.014603 144.527618,152.249908 148.441330,145.826965 
	C140.456970,143.315002 132.393356,140.778091 123.845879,138.088974 
	C114.504730,154.469666 104.698311,171.593826 95.032082,188.796753 
	C94.451027,189.830856 94.442314,191.897400 95.103333,192.791534 
	C97.544670,196.093826 100.379471,199.105209 103.066360,202.225952 
	C103.144180,201.638306 103.222008,201.050644 103.299828,200.462982 
	C107.509857,200.012314 112.066193,198.354782 115.836449,199.436676 
	C119.937759,200.613556 123.308891,204.335052 127.187241,207.080811 
	C129.994110,201.908493 135.211853,199.843307 141.192795,201.705429 
	C148.302368,203.918961 152.276810,209.227432 152.315414,216.813354 
	C162.913681,220.166794 165.679123,223.477814 166.535400,233.834732 
	C172.111435,234.836746 176.634460,237.599091 179.463547,242.793762 
	C182.606659,248.565033 179.516144,253.251190 176.596634,257.836945 
	C187.900345,265.019043 208.686005,265.269379 210.831863,254.604370 
	C202.694778,250.497177 194.540253,246.381180 186.385712,242.265182 
	C186.578979,241.587265 186.772247,240.909332 186.965515,240.231415 
	C188.679962,240.380295 190.511398,240.197769 192.082672,240.752350 
	C194.726898,241.685654 197.180481,243.144867 199.759674,244.279633 
	C205.214890,246.679810 210.587051,249.340149 216.206894,251.272507 
	C220.829193,252.861847 226.629898,249.991699 227.912415,246.122650 
	C229.598785,241.035339 225.540176,239.403625 222.368408,237.425583 
	C215.181976,232.943878 207.878616,228.649261 200.709991,224.139984 
	C199.643921,223.469391 199.050812,222.046967 198.238892,220.972351 
	C199.672180,221.030762 201.376709,220.602570 202.495071,221.225967 
	C210.179169,225.509064 217.609100,230.265274 225.407150,234.318344 
	C228.474030,235.912384 232.253174,236.629288 235.748383,236.774841 
	C239.667725,236.938065 242.897141,234.600571 244.028320,230.779831 
	C245.147324,227.000214 242.596405,224.630905 239.559723,222.759506 
	C230.091187,216.924347 220.647049,211.049362 211.221100,205.145630 
	C209.775406,204.240173 208.475723,203.101562 207.108521,202.070786 
	C207.329086,201.421539 207.549667,200.772293 207.770233,200.123062 
	C209.804962,200.545563 212.130844,200.472961 213.827301,201.470657 
	C225.126251,208.115723 236.239883,215.075424 247.523422,221.747360 
	C252.120438,224.465561 257.463837,223.137451 260.318573,219.044266 
	C262.736786,215.576981 261.980530,212.031555 257.945282,208.080902 
	C257.115265,207.268280 256.215332,206.526199 255.336670,205.764191 
	C234.407379,187.612854 211.602692,172.258209 186.894409,159.713303 
	C180.901703,156.670700 176.152908,157.407181 171.792297,162.472549 
	C171.031891,163.355865 170.402481,164.376328 169.545685,165.148224 
	C165.136276,169.120728 160.672394,173.032776 155.539291,177.294098 
M140.015625,173.146423 
	C145.091995,176.432724 151.782227,175.667374 157.745010,170.449478 
	C161.727432,166.964539 165.184006,162.867172 168.782272,158.957718 
	C173.306030,154.042755 181.061523,151.302185 184.890884,153.302185 
	C211.007324,166.942032 236.023499,182.221176 258.138367,201.911331 
	C259.060364,202.732254 261.741058,202.862045 262.708923,202.130936 
	C267.580292,198.451141 272.154694,194.378174 276.833374,190.443237 
	C276.418091,190.284302 276.002777,190.125351 275.587463,189.966415 
	C275.858643,188.207108 276.129791,186.447815 276.400970,184.688538 
	C277.896729,185.755859 279.440643,186.764191 280.861053,187.923843 
	C281.330994,188.307526 281.447479,189.101868 281.785400,189.673080 
	C283.885345,193.222946 286.621033,194.506378 290.425171,192.115738 
	C293.090637,190.440689 295.821747,188.869263 298.471893,187.170944 
	C303.471893,183.966721 303.970703,182.117859 301.161957,177.035873 
	C290.812897,158.311111 280.435120,139.602219 270.074554,120.883804 
	C267.205170,115.699707 264.979736,115.075768 259.688721,118.055893 
	C258.248505,118.867073 256.860657,119.770554 255.432983,120.604645 
	C247.250153,125.385223 247.002945,126.278076 251.488541,134.513062 
	C252.257385,135.924561 252.906174,137.401443 253.567383,138.759689 
	C251.366959,141.302597 249.805176,141.368469 247.952179,138.637207 
	C247.163101,137.474121 244.807938,136.094650 243.898270,136.492264 
	C235.773636,140.043640 227.812592,137.898590 219.940399,136.029495 
	C202.918716,131.988022 185.932037,130.127213 168.750046,135.012772 
	C164.003922,136.362274 159.856232,138.309052 156.979553,142.648544 
	C153.040115,148.591202 148.477173,154.136093 144.765930,160.208664 
	C142.504471,163.909012 141.342087,168.281082 140.015625,173.146423 
M105.333725,160.850540 
	C110.797104,150.818527 116.204155,140.755173 121.756004,130.772354 
	C123.572327,127.506409 122.835876,124.992683 119.970505,123.081284 
	C116.806282,120.970512 113.534576,118.987831 110.163300,117.230125 
	C107.026558,115.594704 104.059570,115.783386 102.111183,119.283134 
	C91.160072,138.953781 80.169968,158.603043 69.323212,178.331100 
	C67.623978,181.421692 68.087852,184.374954 71.556046,186.389114 
	C74.704018,188.217285 77.695175,190.313232 80.799637,192.219147 
	C84.522964,194.505005 87.313820,193.505508 89.361641,189.737900 
	C94.500565,180.283234 99.690308,170.856186 105.333725,160.850540 
M118.413010,240.171066 
	C124.702316,244.989746 128.384201,244.463608 132.840759,238.075165 
	C137.013916,232.092987 141.214676,226.129074 145.307983,220.092499 
	C148.689972,215.104904 147.729675,210.714844 142.688492,207.351486 
	C138.494186,204.553146 133.730164,205.565674 130.644699,210.006332 
	C126.296684,216.264069 122.138649,222.658157 117.651894,228.813538 
	C114.857025,232.647842 114.909416,236.093353 118.413010,240.171066 
M134.416138,250.848785 
	C140.246948,257.539429 145.496002,257.305939 150.339096,250.119720 
	C153.579102,245.312164 156.870285,240.536301 159.991287,235.652145 
	C162.735641,231.357407 161.736725,226.839859 157.618042,223.900070 
	C153.350159,220.853790 148.582962,221.467316 145.508392,225.757431 
	C141.748489,231.003815 137.875900,236.225983 134.764221,241.852493 
	C133.521439,244.099686 134.179947,247.398392 134.416138,250.848785 
M172.246185,241.077927 
	C166.107193,237.795364 163.077728,237.938034 160.065216,242.024506 
	C157.517029,245.481094 155.131271,249.072861 152.895416,252.740036 
	C150.614502,256.481140 152.001175,261.285126 155.879059,263.976868 
	C160.265839,267.021851 164.194290,266.748627 167.262848,262.846649 
	C169.605484,259.867828 171.591385,256.609070 173.747269,253.482620 
	C176.954178,248.831940 176.760498,246.245850 172.246185,241.077927 
M116.803955,204.495667 
	C110.824402,202.013931 108.739754,202.659775 105.335999,208.070648 
	C104.370094,209.606140 103.404938,211.143341 102.488762,212.708618 
	C99.070305,218.549118 102.011757,224.966049 108.647301,226.177704 
	C114.066666,227.167282 116.760468,224.999222 120.972847,216.365509 
	C123.388611,211.414108 121.584015,207.783783 116.803955,204.495667 
z"/>
<path fill="#057C99" opacity="1.000000" stroke="none" 
	d="
M155.883408,177.130005 
	C160.672394,173.032776 165.136276,169.120728 169.545685,165.148224 
	C170.402481,164.376328 171.031891,163.355865 171.792297,162.472549 
	C176.152908,157.407181 180.901703,156.670700 186.894409,159.713303 
	C211.602692,172.258209 234.407379,187.612854 255.336670,205.764191 
	C256.215332,206.526199 257.115265,207.268280 257.945282,208.080902 
	C261.980530,212.031555 262.736786,215.576981 260.318573,219.044266 
	C257.463837,223.137451 252.120438,224.465561 247.523422,221.747360 
	C236.239883,215.075424 225.126251,208.115723 213.827301,201.470657 
	C212.130844,200.472961 209.804962,200.545563 207.770233,200.123062 
	C207.549667,200.772293 207.329086,201.421539 207.108521,202.070786 
	C208.475723,203.101562 209.775406,204.240173 211.221100,205.145630 
	C220.647049,211.049362 230.091187,216.924347 239.559723,222.759506 
	C242.596405,224.630905 245.147324,227.000214 244.028320,230.779831 
	C242.897141,234.600571 239.667725,236.938065 235.748383,236.774841 
	C232.253174,236.629288 228.474030,235.912384 225.407150,234.318344 
	C217.609100,230.265274 210.179169,225.509064 202.495071,221.225967 
	C201.376709,220.602570 199.672180,221.030762 198.238892,220.972351 
	C199.050812,222.046967 199.643921,223.469391 200.709991,224.139984 
	C207.878616,228.649261 215.181976,232.943878 222.368408,237.425583 
	C225.540176,239.403625 229.598785,241.035339 227.912415,246.122650 
	C226.629898,249.991699 220.829193,252.861847 216.206894,251.272507 
	C210.587051,249.340149 205.214890,246.679810 199.759674,244.279633 
	C197.180481,243.144867 194.726898,241.685654 192.082672,240.752350 
	C190.511398,240.197769 188.679962,240.380295 186.965515,240.231415 
	C186.772247,240.909332 186.578979,241.587265 186.385712,242.265182 
	C194.540253,246.381180 202.694778,250.497177 210.831863,254.604370 
	C208.686005,265.269379 187.900345,265.019043 176.596634,257.836945 
	C179.516144,253.251190 182.606659,248.565033 179.463547,242.793762 
	C176.634460,237.599091 172.111435,234.836746 166.535400,233.834732 
	C165.679123,223.477814 162.913681,220.166794 152.315414,216.813354 
	C152.276810,209.227432 148.302368,203.918961 141.192795,201.705429 
	C135.211853,199.843307 129.994110,201.908493 127.187241,207.080811 
	C123.308891,204.335052 119.937759,200.613556 115.836449,199.436676 
	C112.066193,198.354782 107.509857,200.012314 103.299828,200.462982 
	C103.222008,201.050644 103.144180,201.638306 103.066360,202.225952 
	C100.379471,199.105209 97.544670,196.093826 95.103333,192.791534 
	C94.442314,191.897400 94.451027,189.830856 95.032082,188.796753 
	C104.698311,171.593826 114.504730,154.469666 123.845879,138.088974 
	C132.393356,140.778091 140.456970,143.315002 148.441330,145.826965 
	C144.527618,152.249908 140.043869,159.014603 136.180679,166.116852 
	C132.385315,173.094421 136.551086,179.917099 144.513260,179.746048 
	C148.204468,179.666748 151.864899,178.155945 155.883408,177.130005 
z"/>
<path fill="#047C99" opacity="1.000000" stroke="none" 
	d="
M139.850815,172.748932 
	C141.342087,168.281082 142.504471,163.909012 144.765930,160.208664 
	C148.477173,154.136093 153.040115,148.591202 156.979553,142.648544 
	C159.856232,138.309052 164.003922,136.362274 168.750046,135.012772 
	C185.932037,130.127213 202.918716,131.988022 219.940399,136.029495 
	C227.812592,137.898590 235.773636,140.043640 243.898270,136.492264 
	C244.807938,136.094650 247.163101,137.474121 247.952179,138.637207 
	C249.805176,141.368469 251.366959,141.302597 253.567383,138.759689 
	C252.906174,137.401443 252.257385,135.924561 251.488541,134.513062 
	C247.002945,126.278076 247.250153,125.385223 255.432983,120.604645 
	C256.860657,119.770554 258.248505,118.867073 259.688721,118.055893 
	C264.979736,115.075768 267.205170,115.699707 270.074554,120.883804 
	C280.435120,139.602219 290.812897,158.311111 301.161957,177.035873 
	C303.970703,182.117859 303.471893,183.966721 298.471893,187.170944 
	C295.821747,188.869263 293.090637,190.440689 290.425171,192.115738 
	C286.621033,194.506378 283.885345,193.222946 281.785400,189.673080 
	C281.447479,189.101868 281.330994,188.307526 280.861053,187.923843 
	C279.440643,186.764191 277.896729,185.755859 276.400970,184.688538 
	C276.129791,186.447815 275.858643,188.207108 275.587463,189.966415 
	C276.002777,190.125351 276.418091,190.284302 276.833374,190.443237 
	C272.154694,194.378174 267.580292,198.451141 262.708923,202.130936 
	C261.741058,202.862045 259.060364,202.732254 258.138367,201.911331 
	C236.023499,182.221176 211.007324,166.942032 184.890884,153.302185 
	C181.061523,151.302185 173.306030,154.042755 168.782272,158.957718 
	C165.184006,162.867172 161.727432,166.964539 157.745010,170.449478 
	C151.782227,175.667374 145.091995,176.432724 139.850815,172.748932 
z"/>
<path fill="#067D99" opacity="1.000000" stroke="none" 
	d="
M105.096695,161.134308 
	C99.690308,170.856186 94.500565,180.283234 89.361641,189.737900 
	C87.313820,193.505508 84.522964,194.505005 80.799637,192.219147 
	C77.695175,190.313232 74.704018,188.217285 71.556046,186.389114 
	C68.087852,184.374954 67.623978,181.421692 69.323212,178.331100 
	C80.169968,158.603043 91.160072,138.953781 102.111183,119.283134 
	C104.059570,115.783386 107.026558,115.594704 110.163300,117.230125 
	C113.534576,118.987831 116.806282,120.970512 119.970505,123.081284 
	C122.835876,124.992683 123.572327,127.506409 121.756004,130.772354 
	C116.204155,140.755173 110.797104,150.818527 105.096695,161.134308 
z"/>
<path fill="#087E9A" opacity="1.000000" stroke="none" 
	d="
M118.147263,239.906647 
	C114.909416,236.093353 114.857025,232.647842 117.651894,228.813538 
	C122.138649,222.658157 126.296684,216.264069 130.644699,210.006332 
	C133.730164,205.565674 138.494186,204.553146 142.688492,207.351486 
	C147.729675,210.714844 148.689972,215.104904 145.307983,220.092499 
	C141.214676,226.129074 137.013916,232.092987 132.840759,238.075165 
	C128.384201,244.463608 124.702316,244.989746 118.147263,239.906647 
z"/>
<path fill="#097E9B" opacity="1.000000" stroke="none" 
	d="
M134.194550,250.533600 
	C134.179947,247.398392 133.521439,244.099686 134.764221,241.852493 
	C137.875900,236.225983 141.748489,231.003815 145.508392,225.757431 
	C148.582962,221.467316 153.350159,220.853790 157.618042,223.900070 
	C161.736725,226.839859 162.735641,231.357407 159.991287,235.652145 
	C156.870285,240.536301 153.579102,245.312164 150.339096,250.119720 
	C145.496002,257.305939 140.246948,257.539429 134.194550,250.533600 
z"/>
<path fill="#0A7F9B" opacity="1.000000" stroke="none" 
	d="
M172.541321,241.331985 
	C176.760498,246.245850 176.954178,248.831940 173.747269,253.482620 
	C171.591385,256.609070 169.605484,259.867828 167.262848,262.846649 
	C164.194290,266.748627 160.265839,267.021851 155.879059,263.976868 
	C152.001175,261.285126 150.614502,256.481140 152.895416,252.740036 
	C155.131271,249.072861 157.517029,245.481094 160.065216,242.024506 
	C163.077728,237.938034 166.107193,237.795364 172.541321,241.331985 
z"/>
<path fill="#0A7F9B" opacity="1.000000" stroke="none" 
	d="
M117.148926,204.656662 
	C121.584015,207.783783 123.388611,211.414108 120.972847,216.365509 
	C116.760468,224.999222 114.066666,227.167282 108.647301,226.177704 
	C102.011757,224.966049 99.070305,218.549118 102.488762,212.708618 
	C103.404938,211.143341 104.370094,209.606140 105.335999,208.070648 
	C108.739754,202.659775 110.824402,202.013931 117.148926,204.656662 
z"/>
</svg>