<svg version="1.1" id="Layer_1" xmlns="http://www.w3.org/2000/svg" xmlns:xlink="http://www.w3.org/1999/xlink" x="0px" y="0px"
	 width="100%" viewBox="0 0 382 350" enable-background="new 0 0 382 350" xml:space="preserve">
<path fill="#FFFFFF" opacity="1.000000" stroke="none" 
	d="
M221.000000,351.000000 
	C147.358322,351.000000 74.216637,351.000000 1.037477,351.000000 
	C1.037477,234.398163 1.037477,117.796318 1.037477,1.097235 
	C128.224960,1.097235 255.450027,1.097235 382.837524,1.097235 
	C382.837524,117.666489 382.837524,234.333221 382.837524,351.000000 
	C329.129730,351.000000 275.314880,351.000000 221.000000,351.000000 
M339.817535,208.232010 
	C339.918640,206.569962 339.908295,204.892380 340.137512,203.248184 
	C343.741638,177.391617 341.217072,152.112839 331.106262,128.074875 
	C309.209595,76.016541 270.503357,44.411118 214.544678,34.771935 
	C190.911530,30.701004 167.318985,32.041096 144.787521,40.066528 
	C90.310158,59.470703 56.105698,97.370888 43.914642,154.318436 
	C38.402069,180.069092 39.858498,205.615585 48.663624,230.391693 
	C68.284698,285.601990 106.911774,319.340607 164.433441,331.152588 
	C189.052200,336.207977 213.242859,334.191986 237.063187,326.470184 
	C276.529327,313.676453 305.549713,288.557861 325.004456,252.105408 
	C332.231262,238.564484 336.513702,224.025955 339.817535,208.232010 
z"/>
<path fill="#FFFFFF" opacity="1.000000" stroke="none" 
	d="
M339.751312,208.668213 
	C336.513702,224.025955 332.231262,238.564484 325.004456,252.105408 
	C305.549713,288.557861 276.529327,313.676453 237.063187,326.470184 
	C213.242859,334.191986 189.052200,336.207977 164.433441,331.152588 
	C106.911774,319.340607 68.284698,285.601990 48.663624,230.391693 
	C39.858498,205.615585 38.402069,180.069092 43.914642,154.318436 
	C56.105698,97.370888 90.310158,59.470703 144.787521,40.066528 
	C167.318985,32.041096 190.911530,30.701004 214.544678,34.771935 
	C270.503357,44.411118 309.209595,76.016541 331.106262,128.074875 
	C341.217072,152.112839 343.741638,177.391617 340.137512,203.248184 
	C339.908295,204.892380 339.918640,206.569962 339.751312,208.668213 
M130.224380,90.267342 
	C132.420731,94.483604 136.147568,96.353851 140.632278,97.088684 
	C145.375916,97.865936 150.107117,98.722580 154.857986,99.451721 
	C163.142487,100.723175 169.683609,107.702316 178.871750,106.478188 
	C180.969818,106.198654 183.415405,108.527443 185.701035,109.655769 
	C183.508865,111.480202 181.503662,113.642052 179.053040,115.000114 
	C177.626175,115.790833 175.438354,115.590393 173.676468,115.310364 
	C170.573822,114.817253 167.564529,113.714943 164.458481,113.273483 
	C162.652756,113.016830 159.732880,112.903412 159.102692,113.879791 
	C158.163361,115.335167 157.970932,118.399185 158.922623,119.744644 
	C162.239502,124.433807 165.870789,128.999695 169.972092,133.009460 
	C174.955963,137.882080 180.619156,142.053406 185.790176,146.746613 
	C186.799774,147.662918 186.902588,149.578354 187.423630,151.032944 
	C185.760025,151.389786 184.046722,152.164200 182.448196,151.974014 
	C181.120789,151.816086 179.843079,150.630219 178.691467,149.713623 
	C174.396652,146.295258 170.227264,142.716583 165.879272,139.368881 
	C163.664139,137.663361 161.169250,136.321182 158.800812,134.814774 
	C158.414902,135.215652 158.028992,135.616516 157.643082,136.017395 
	C158.760284,137.899948 159.755539,139.868866 161.016510,141.649612 
	C165.626511,148.159866 170.344650,154.593399 174.979568,161.086166 
	C176.593079,163.346405 178.226517,166.187119 174.920670,167.790787 
	C173.613373,168.424957 170.285965,166.885559 169.073914,165.375946 
	C164.185349,159.287231 159.722839,152.852676 155.198029,146.478378 
	C154.086365,144.912308 153.333786,143.091354 152.416122,141.387589 
	C151.617737,142.003265 150.819336,142.618942 150.020950,143.234619 
	C150.390625,144.707321 150.525009,146.293137 151.169525,147.633698 
	C154.472321,154.503143 157.999451,161.266327 161.204315,168.179703 
	C161.745834,169.347855 161.096634,171.068008 160.997589,172.533112 
	C159.571579,172.104034 157.985703,171.927887 156.772934,171.161407 
	C155.890564,170.603729 155.492874,169.271225 154.893005,168.275803 
	C150.863724,161.589432 146.861038,154.886810 142.785721,148.228638 
	C142.201736,147.274536 141.272766,146.531586 139.627457,144.733658 
	C139.772141,147.499100 139.697220,148.826370 139.932907,150.095993 
	C140.963882,155.649887 142.202545,161.168350 143.088608,166.743744 
	C143.303650,168.096985 142.464935,169.617706 142.110764,171.061417 
	C140.764206,170.141708 139.015091,169.490204 138.176712,168.231903 
	C137.208771,166.779160 137.027298,164.796051 136.532883,163.035233 
	C133.592926,152.565247 131.968842,141.669189 123.830307,133.223801 
	C121.419479,130.722046 120.931915,126.320480 119.699303,122.742531 
	C118.407593,118.993057 118.127159,114.569145 115.910622,111.529549 
	C110.663925,104.334625 104.531624,97.785507 98.807991,91.035011 
	C68.752281,111.250641 49.359875,185.159698 65.345665,217.821289 
	C69.729149,216.607452 74.109421,214.821594 78.641708,214.257858 
	C88.306000,213.055786 93.404938,207.340012 96.806053,198.757065 
	C98.604439,194.218719 101.209396,189.552261 104.682556,186.233185 
	C109.549538,181.582108 112.773125,176.364578 115.013367,170.175903 
	C115.613777,168.517242 117.648987,167.377960 119.025520,166.000244 
	C120.252342,167.736221 122.127312,169.317368 122.585884,171.236877 
	C124.029716,177.280457 119.943619,181.495529 117.115479,186.180008 
	C115.963051,188.088867 115.953270,190.687607 115.423607,192.972473 
	C117.773445,193.429993 120.458542,194.846420 122.409912,194.164169 
	C128.133377,192.163132 133.707016,189.594345 139.070084,186.741745 
	C144.191269,184.017853 148.866867,180.459595 153.971359,177.698944 
	C155.495499,176.874634 157.803802,177.500229 159.752823,177.461517 
	C159.112488,179.374405 158.796310,181.499252 157.728348,183.132523 
	C156.887375,184.418594 155.141357,185.131653 153.759537,186.041855 
	C149.180710,189.058029 144.536606,191.978210 140.020721,195.085190 
	C138.371964,196.219559 137.012405,197.774307 135.520905,199.137268 
	C135.748749,199.597763 135.976593,200.058273 136.204437,200.518784 
	C138.508759,200.021866 140.864410,199.691162 143.108078,198.997940 
	C150.869202,196.599976 158.541611,193.893723 166.371124,191.756699 
	C167.896271,191.340408 169.974487,192.950455 171.797607,193.625839 
	C170.775818,195.241348 169.888840,196.969666 168.672928,198.422745 
	C168.100998,199.106247 166.922516,199.343079 165.974533,199.641327 
	C159.018005,201.829880 152.021317,203.896149 145.106033,206.206711 
	C143.340897,206.796478 141.822418,208.124512 140.190628,209.113358 
	C140.392654,209.646439 140.594696,210.179504 140.796722,210.712585 
	C143.202942,210.588867 145.634521,210.643951 148.010437,210.306793 
	C154.266510,209.418945 160.481003,208.214645 166.751572,207.468323 
	C168.411606,207.270737 170.214584,208.274246 171.951920,208.726257 
	C170.567978,210.076324 169.393616,212.207031 167.764618,212.644379 
	C159.749283,214.796219 151.605209,216.464722 143.527863,218.392990 
	C142.175171,218.715912 140.927124,219.477219 139.630707,220.035950 
	C146.936646,222.186432 153.973145,223.036575 160.962906,224.173874 
	C162.272568,224.386963 163.395294,225.748810 164.604294,226.580551 
	C163.197906,227.439178 161.830841,228.943817 160.377548,229.032303 
	C156.407562,229.274033 152.384415,229.109634 148.412796,228.759888 
	C140.254761,228.041504 132.271667,227.489716 124.564613,231.571304 
	C121.942795,232.959793 118.211678,233.604736 115.355934,232.959213 
	C104.766296,230.565491 95.373802,233.436218 86.137466,238.112930 
	C82.398354,240.006195 78.484802,241.554947 74.635826,243.267044 
	C99.875267,293.605865 154.188904,315.829803 185.988831,313.514099 
	C185.988831,306.952728 186.406525,300.277863 185.820358,293.692322 
	C185.506607,290.167419 184.491180,285.352753 182.027786,283.599457 
	C169.663605,274.799408 166.148422,258.687988 153.539642,250.170441 
	C150.600571,248.185028 151.907364,245.254929 155.557938,244.825546 
	C160.198410,244.279709 164.041412,245.937103 167.013321,249.520004 
	C168.815292,251.692459 170.377106,254.079147 172.298691,256.134064 
	C175.837845,259.918762 178.743011,259.334808 179.953308,254.195236 
	C180.802338,250.589783 181.094131,246.563431 180.426773,242.948029 
	C178.801315,234.142029 176.348251,225.491470 174.540222,216.714111 
	C174.207352,215.098190 175.340927,213.180206 175.797638,211.401642 
	C177.481918,212.459045 179.764587,213.146423 180.703491,214.664749 
	C181.960281,216.697174 182.153992,219.379730 182.843018,221.771927 
	C184.741364,228.362762 186.659927,234.947754 188.570496,241.535049 
	C189.229233,241.470917 189.887985,241.406769 190.546738,241.342621 
	C190.902817,239.354462 191.542587,237.369568 191.565567,235.377579 
	C191.661591,227.049927 191.556610,218.720169 191.560455,210.391174 
	C191.561676,207.734222 192.126419,204.804260 195.312119,205.195343 
	C196.598648,205.353287 198.376312,208.423477 198.463089,210.238510 
	C198.828705,217.886520 198.568375,225.562241 198.700256,233.225006 
	C198.738556,235.448853 199.319778,237.663361 199.652115,239.882141 
	C200.090302,239.941238 200.528503,240.000336 200.966705,240.059433 
	C201.629532,238.501526 202.600449,237.000900 202.902512,235.375931 
	C204.299774,227.859512 205.409882,220.288589 206.887070,212.789230 
	C207.138275,211.513885 208.678360,210.492432 209.622986,209.353699 
	C210.424515,210.655869 211.881744,211.947159 211.903534,213.262253 
	C211.966644,217.069107 211.443085,220.884811 211.167435,224.698334 
	C210.710495,231.019791 210.267349,237.342224 209.818405,243.664261 
	C210.326828,243.766006 210.835251,243.867767 211.343674,243.969513 
	C212.068268,242.582489 212.837204,241.216583 213.509537,239.804657 
	C216.003433,234.567459 218.361237,229.261078 221.028275,224.114441 
	C221.555817,223.096420 223.226212,222.670639 224.369568,221.971756 
	C224.833252,223.126038 225.637741,224.271500 225.667908,225.436996 
	C225.700211,226.684097 225.064758,227.972763 224.614182,229.204269 
	C220.420639,240.666046 214.874954,251.690216 216.392151,264.650940 
	C216.812485,268.241608 214.257355,272.179321 213.072647,275.959503 
	C212.038330,279.259766 210.095581,282.579651 210.157410,285.860657 
	C210.325516,294.781952 211.343414,303.687256 212.025864,312.616882 
	C252.759216,307.851776 297.734558,275.693634 313.834656,229.608292 
	C308.359711,227.445679 302.748444,225.510941 297.385223,223.038177 
	C290.945740,220.069168 285.339935,221.509918 279.459869,224.743744 
	C274.268921,227.598557 268.777802,231.005783 263.131134,231.652069 
	C256.267609,232.437653 250.830399,235.056732 245.512466,238.809814 
	C244.842560,239.282608 244.077896,239.931290 243.348312,239.942886 
	C241.959030,239.964951 240.252975,239.988220 239.276627,239.235306 
	C238.595947,238.710419 238.537643,236.789505 238.847000,235.670700 
	C240.254028,230.582001 243.925598,227.704025 248.772232,226.058701 
	C250.965729,225.314072 253.181091,224.556442 255.243652,223.520294 
	C259.144745,221.560608 259.527557,218.919647 255.844086,216.495911 
	C252.892227,214.553574 249.421082,212.789566 245.988861,212.306030 
	C236.778244,211.008392 227.448990,210.572891 218.206299,209.465714 
	C216.439148,209.254013 214.852371,207.536423 213.182388,206.513596 
	C215.120316,205.336288 217.027786,203.222443 219.001938,203.158203 
	C224.799774,202.969559 230.621246,203.716034 236.439194,203.853638 
	C239.591217,203.928207 242.754944,203.508514 245.913376,203.311768 
	C245.993301,202.790451 246.073227,202.269150 246.153137,201.747833 
	C244.767181,201.051437 243.440887,200.177551 241.985321,199.688248 
	C234.134232,197.049103 226.231125,194.563950 218.390152,191.895798 
	C215.768585,191.003708 212.276764,190.119583 213.367035,186.355530 
	C214.518143,182.381409 217.936920,184.287521 220.581070,184.614410 
	C221.061691,184.673813 221.508987,184.972305 221.981705,185.130463 
	C228.735031,187.389938 235.466309,189.720200 242.261520,191.846069 
	C243.946136,192.373123 245.839203,192.233978 247.636444,192.401062 
	C247.772827,191.983459 247.909210,191.565857 248.045593,191.148254 
	C246.676514,190.053101 245.435181,188.719803 243.915833,187.904739 
	C237.928513,184.692810 231.770828,181.790131 225.864578,178.440811 
	C224.196106,177.494659 223.168289,175.418762 221.846634,173.861023 
	C223.900604,173.699951 226.231522,172.827271 227.960846,173.500305 
	C235.668884,176.500320 243.191284,179.974564 250.817368,183.190643 
	C252.014038,183.695297 253.399277,183.752792 255.783081,184.238068 
	C254.634094,182.578613 254.284241,181.833649 253.727676,181.307220 
	C249.048096,176.880981 244.241028,172.584061 239.697250,168.024109 
	C238.744766,167.068222 238.719696,165.188248 238.267258,163.734116 
	C239.782562,163.758865 241.645157,163.227829 242.746078,163.915726 
	C245.691132,165.755920 248.277634,168.161087 251.063995,170.265808 
	C257.380341,175.036987 262.942993,180.740326 271.135498,182.890533 
	C275.916168,184.145248 280.801300,186.670868 284.516754,189.911758 
	C289.680786,194.416199 294.960693,197.900742 301.749023,199.172882 
	C308.170380,200.376251 314.523285,201.944580 320.917694,203.354904 
	C329.958374,151.625931 302.826813,101.854706 272.862091,81.124031 
	C268.747589,86.279480 264.707581,91.535057 260.451324,96.609192 
	C257.419525,100.223564 256.696716,104.112816 257.480865,108.701828 
	C258.512909,114.741341 259.928589,120.911140 259.600037,126.938843 
	C259.167603,134.871368 257.897034,142.677551 261.187042,150.295624 
	C261.311523,150.583923 261.263947,150.954590 261.264862,151.286957 
	C261.275085,154.952393 258.821777,156.689087 256.283264,154.267548 
	C253.594955,151.703125 251.508377,148.109680 250.239304,144.577515 
	C249.160004,141.573547 249.764572,137.999344 249.356293,134.710678 
	C248.849289,130.626785 246.373703,129.263046 243.220825,131.849640 
	C240.108795,134.402725 237.057266,137.569107 235.296585,141.119690 
	C231.400772,148.975952 228.481354,157.311142 224.805817,165.286041 
	C224.023193,166.984085 221.716293,167.979599 220.111633,169.298767 
	C219.564941,167.082932 218.141800,164.638245 218.648560,162.697464 
	C219.811600,158.243317 222.024918,154.074524 223.605301,149.715012 
	C225.079163,145.649246 226.286148,141.486740 227.610611,137.366821 
	C226.662033,136.653015 225.713440,135.939224 224.764862,135.225418 
	C223.890961,136.990570 223.227951,138.904541 222.105942,140.494598 
	C217.695648,146.744614 213.227463,152.958527 208.597702,159.046631 
	C206.709488,161.529633 204.696579,165.852844 200.903961,162.940994 
	C197.574783,160.384995 200.687363,157.320999 202.487701,154.815186 
	C206.754959,148.875778 211.076859,142.975143 215.292389,136.999374 
	C216.238205,135.658615 216.838776,134.074326 217.598267,132.602142 
	C217.208984,132.264084 216.819702,131.926025 216.430435,131.587967 
	C214.646286,132.834091 212.676483,133.884171 211.113770,135.364136 
	C206.892288,139.362076 202.981461,143.695694 198.663101,147.580109 
	C196.795715,149.259842 192.535599,151.557159 192.242325,151.201202 
	C189.374756,147.720688 192.880844,145.592636 194.770493,143.342041 
	C200.387115,136.652466 206.180466,130.111237 211.904739,123.512039 
	C211.671387,123.172119 211.438049,122.832207 211.204697,122.492287 
	C209.616562,123.113373 207.948608,123.585083 206.455139,124.383286 
	C201.772247,126.886116 197.233322,129.672791 192.464600,131.991669 
	C191.043106,132.682892 189.048981,132.196518 187.317215,132.249710 
	C188.126480,130.606873 188.516174,128.406387 189.822189,127.423767 
	C194.061722,124.234001 198.529007,121.306152 203.110504,118.622108 
	C208.693588,115.351334 212.958878,111.038040 216.504868,105.577751 
	C218.676880,102.233185 222.220978,99.704460 225.388580,97.100983 
	C229.204132,93.964966 234.163803,91.813866 237.037537,88.028748 
	C242.109161,81.348717 245.976212,73.754158 250.407669,66.443184 
	C249.786743,65.923019 249.442398,65.542122 249.018875,65.299179 
	C248.160751,64.806953 247.271988,64.363182 246.374619,63.945015 
	C230.357391,56.481033 213.550293,52.390049 195.857773,51.792953 
	C169.876877,50.916134 145.879456,57.444508 123.499016,70.496803 
	C120.050484,72.507988 119.038727,74.204208 121.772636,77.676010 
	C124.742233,81.447121 127.183708,85.634094 130.224380,90.267342 
z"/>
<path fill="#FFFFFF" opacity="1.000000" stroke="none" 
	d="
M130.039917,89.953537 
	C127.183708,85.634094 124.742233,81.447121 121.772636,77.676010 
	C119.038727,74.204208 120.050484,72.507988 123.499016,70.496803 
	C145.879456,57.444508 169.876877,50.916134 195.857773,51.792953 
	C213.550293,52.390049 230.357391,56.481033 246.374619,63.945015 
	C247.271988,64.363182 248.160751,64.806953 249.018875,65.299179 
	C249.442398,65.542122 249.786743,65.923019 250.407669,66.443184 
	C245.976212,73.754158 242.109161,81.348717 237.037537,88.028748 
	C234.163803,91.813866 229.204132,93.964966 225.388580,97.100983 
	C222.220978,99.704460 218.676880,102.233185 216.504868,105.577751 
	C212.958878,111.038040 208.693588,115.351334 203.110504,118.622108 
	C198.529007,121.306152 194.061722,124.234001 189.822189,127.423767 
	C188.516174,128.406387 188.126480,130.606873 187.317215,132.249710 
	C189.048981,132.196518 191.043106,132.682892 192.464600,131.991669 
	C197.233322,129.672791 201.772247,126.886116 206.455139,124.383286 
	C207.948608,123.585083 209.616562,123.113373 211.204697,122.492287 
	C211.438049,122.832207 211.671387,123.172119 211.904739,123.512039 
	C206.180466,130.111237 200.387115,136.652466 194.770493,143.342041 
	C192.880844,145.592636 189.374756,147.720688 192.242325,151.201202 
	C192.535599,151.557159 196.795715,149.259842 198.663101,147.580109 
	C202.981461,143.695694 206.892288,139.362076 211.113770,135.364136 
	C212.676483,133.884171 214.646286,132.834091 216.430435,131.587967 
	C216.819702,131.926025 217.208984,132.264084 217.598267,132.602142 
	C216.838776,134.074326 216.238205,135.658615 215.292389,136.999374 
	C211.076859,142.975143 206.754959,148.875778 202.487701,154.815186 
	C200.687363,157.320999 197.574783,160.384995 200.903961,162.940994 
	C204.696579,165.852844 206.709488,161.529633 208.597702,159.046631 
	C213.227463,152.958527 217.695648,146.744614 222.105942,140.494598 
	C223.227951,138.904541 223.890961,136.990570 224.764862,135.225418 
	C225.713440,135.939224 226.662033,136.653015 227.610611,137.366821 
	C226.286148,141.486740 225.079163,145.649246 223.605301,149.715012 
	C222.024918,154.074524 219.811600,158.243317 218.648560,162.697464 
	C218.141800,164.638245 219.564941,167.082932 220.111633,169.298767 
	C221.716293,167.979599 224.023193,166.984085 224.805817,165.286041 
	C228.481354,157.311142 231.400772,148.975952 235.296585,141.119690 
	C237.057266,137.569107 240.108795,134.402725 243.220825,131.849640 
	C246.373703,129.263046 248.849289,130.626785 249.356293,134.710678 
	C249.764572,137.999344 249.160004,141.573547 250.239304,144.577515 
	C251.508377,148.109680 253.594955,151.703125 256.283264,154.267548 
	C258.821777,156.689087 261.275085,154.952393 261.264862,151.286957 
	C261.263947,150.954590 261.311523,150.583923 261.187042,150.295624 
	C257.897034,142.677551 259.167603,134.871368 259.600037,126.938843 
	C259.928589,120.911140 258.512909,114.741341 257.480865,108.701828 
	C256.696716,104.112816 257.419525,100.223564 260.451324,96.609192 
	C264.707581,91.535057 268.747589,86.279480 272.862091,81.124031 
	C302.826813,101.854706 329.958374,151.625931 320.917694,203.354904 
	C314.523285,201.944580 308.170380,200.376251 301.749023,199.172882 
	C294.960693,197.900742 289.680786,194.416199 284.516754,189.911758 
	C280.801300,186.670868 275.916168,184.145248 271.135498,182.890533 
	C262.942993,180.740326 257.380341,175.036987 251.063995,170.265808 
	C248.277634,168.161087 245.691132,165.755920 242.746078,163.915726 
	C241.645157,163.227829 239.782562,163.758865 238.267258,163.734100 
	C238.719696,165.188248 238.744766,167.068222 239.697250,168.024109 
	C244.241028,172.584061 249.048096,176.880981 253.727676,181.307220 
	C254.284241,181.833649 254.634094,182.578613 255.783081,184.238068 
	C253.399277,183.752792 252.014038,183.695297 250.817368,183.190643 
	C243.191284,179.974564 235.668884,176.500320 227.960846,173.500305 
	C226.231522,172.827271 223.900604,173.699951 221.846634,173.861023 
	C223.168289,175.418762 224.196106,177.494659 225.864578,178.440811 
	C231.770828,181.790131 237.928513,184.692810 243.915833,187.904739 
	C245.435181,188.719803 246.676514,190.053101 248.045593,191.148254 
	C247.909210,191.565857 247.772827,191.983459 247.636444,192.401062 
	C245.839203,192.233978 243.946136,192.373123 242.261520,191.846069 
	C235.466309,189.720200 228.735031,187.389938 221.981705,185.130463 
	C221.508987,184.972305 221.061691,184.673813 220.581070,184.614410 
	C217.936920,184.287521 214.518143,182.381409 213.367035,186.355530 
	C212.276764,190.119583 215.768585,191.003708 218.390152,191.895798 
	C226.231125,194.563950 234.134232,197.049103 241.985321,199.688248 
	C243.440887,200.177551 244.767181,201.051437 246.153137,201.747833 
	C246.073227,202.269150 245.993301,202.790451 245.913376,203.311768 
	C242.754944,203.508514 239.591217,203.928207 236.439194,203.853638 
	C230.621246,203.716034 224.799774,202.969559 219.001938,203.158203 
	C217.027786,203.222443 215.120316,205.336288 213.182388,206.513611 
	C214.852371,207.536423 216.439148,209.254013 218.206299,209.465714 
	C227.448990,210.572891 236.778244,211.008392 245.988861,212.306030 
	C249.421082,212.789566 252.892227,214.553574 255.844086,216.495911 
	C259.527557,218.919647 259.144745,221.560608 255.243652,223.520294 
	C253.181091,224.556442 250.965729,225.314072 248.772232,226.058701 
	C243.925598,227.704025 240.254028,230.582001 238.847000,235.670700 
	C238.537643,236.789505 238.595947,238.710419 239.276627,239.235306 
	C240.252975,239.988220 241.959030,239.964951 243.348312,239.942886 
	C244.077896,239.931290 244.842560,239.282608 245.512466,238.809814 
	C250.830399,235.056732 256.267609,232.437653 263.131134,231.652069 
	C268.777802,231.005783 274.268921,227.598557 279.459869,224.743744 
	C285.339935,221.509918 290.945740,220.069168 297.385223,223.038177 
	C302.748444,225.510941 308.359711,227.445679 313.834656,229.608292 
	C297.734558,275.693634 252.759216,307.851776 212.025864,312.616882 
	C211.343414,303.687256 210.325516,294.781952 210.157410,285.860657 
	C210.095581,282.579651 212.038330,279.259766 213.072647,275.959503 
	C214.257355,272.179321 216.812485,268.241608 216.392151,264.650940 
	C214.874954,251.690216 220.420639,240.666046 224.614182,229.204269 
	C225.064758,227.972763 225.700211,226.684097 225.667908,225.436996 
	C225.637741,224.271500 224.833252,223.126038 224.369568,221.971756 
	C223.226212,222.670639 221.555817,223.096420 221.028275,224.114441 
	C218.361237,229.261078 216.003433,234.567459 213.509537,239.804657 
	C212.837204,241.216583 212.068268,242.582489 211.343674,243.969513 
	C210.835251,243.867767 210.326828,243.766006 209.818405,243.664261 
	C210.267349,237.342224 210.710495,231.019791 211.167435,224.698334 
	C211.443085,220.884811 211.966644,217.069107 211.903534,213.262253 
	C211.881744,211.947159 210.424515,210.655869 209.622986,209.353699 
	C208.678360,210.492432 207.138275,211.513885 206.887070,212.789230 
	C205.409882,220.288589 204.299774,227.859512 202.902512,235.375931 
	C202.600449,237.000900 201.629532,238.501526 200.966705,240.059433 
	C200.528503,240.000336 200.090302,239.941238 199.652115,239.882141 
	C199.319778,237.663361 198.738556,235.448853 198.700256,233.225006 
	C198.568375,225.562241 198.828705,217.886520 198.463089,210.238510 
	C198.376312,208.423477 196.598648,205.353287 195.312119,205.195343 
	C192.126419,204.804260 191.561676,207.734222 191.560455,210.391174 
	C191.556610,218.720169 191.661591,227.049927 191.565567,235.377579 
	C191.542587,237.369568 190.902817,239.354462 190.546738,241.342621 
	C189.887985,241.406769 189.229233,241.470917 188.570496,241.535049 
	C186.659927,234.947754 184.741364,228.362762 182.843018,221.771927 
	C182.153992,219.379730 181.960281,216.697174 180.703491,214.664749 
	C179.764587,213.146423 177.481918,212.459045 175.797638,211.401642 
	C175.340927,213.180206 174.207352,215.098190 174.540222,216.714111 
	C176.348251,225.491470 178.801315,234.142029 180.426773,242.948029 
	C181.094131,246.563431 180.802338,250.589783 179.953308,254.195236 
	C178.743011,259.334808 175.837845,259.918762 172.298691,256.134064 
	C170.377106,254.079147 168.815292,251.692459 167.013321,249.520004 
	C164.041412,245.937103 160.198410,244.279709 155.557938,244.825546 
	C151.907364,245.254929 150.600571,248.185028 153.539642,250.170441 
	C166.148422,258.687988 169.663605,274.799408 182.027786,283.599457 
	C184.491180,285.352753 185.506607,290.167419 185.820358,293.692322 
	C186.406525,300.277863 185.988831,306.952728 185.988831,313.514099 
	C154.188904,315.829803 99.875267,293.605865 74.635826,243.267044 
	C78.484802,241.554947 82.398354,240.006195 86.137466,238.112930 
	C95.373802,233.436218 104.766296,230.565491 115.355934,232.959213 
	C118.211678,233.604736 121.942795,232.959793 124.564613,231.571304 
	C132.271667,227.489716 140.254761,228.041504 148.412796,228.759888 
	C152.384415,229.109634 156.407562,229.274033 160.377548,229.032303 
	C161.830841,228.943817 163.197906,227.439178 164.604294,226.580536 
	C163.395294,225.748810 162.272568,224.386963 160.962906,224.173874 
	C153.973145,223.036575 146.936646,222.186432 139.630707,220.035950 
	C140.927124,219.477219 142.175171,218.715912 143.527863,218.392990 
	C151.605209,216.464722 159.749283,214.796219 167.764618,212.644379 
	C169.393616,212.207031 170.567978,210.076324 171.951920,208.726257 
	C170.214584,208.274246 168.411606,207.270737 166.751572,207.468323 
	C160.481003,208.214645 154.266510,209.418945 148.010437,210.306793 
	C145.634521,210.643951 143.202942,210.588867 140.796722,210.712585 
	C140.594696,210.179504 140.392654,209.646439 140.190628,209.113358 
	C141.822418,208.124512 143.340897,206.796478 145.106033,206.206711 
	C152.021317,203.896149 159.018005,201.829880 165.974533,199.641327 
	C166.922516,199.343079 168.100998,199.106247 168.672928,198.422745 
	C169.888840,196.969666 170.775818,195.241348 171.797607,193.625839 
	C169.974487,192.950455 167.896271,191.340408 166.371124,191.756699 
	C158.541611,193.893723 150.869202,196.599976 143.108078,198.997940 
	C140.864410,199.691162 138.508759,200.021866 136.204437,200.518784 
	C135.976593,200.058273 135.748749,199.597763 135.520905,199.137268 
	C137.012405,197.774307 138.371964,196.219559 140.020721,195.085190 
	C144.536606,191.978210 149.180710,189.058029 153.759537,186.041855 
	C155.141357,185.131653 156.887375,184.418594 157.728348,183.132523 
	C158.796310,181.499252 159.112488,179.374405 159.752823,177.461517 
	C157.803802,177.500229 155.495499,176.874634 153.971359,177.698944 
	C148.866867,180.459595 144.191269,184.017853 139.070084,186.741745 
	C133.707016,189.594345 128.133377,192.163132 122.409912,194.164169 
	C120.458542,194.846420 117.773445,193.429993 115.423607,192.972473 
	C115.953270,190.687607 115.963051,188.088867 117.115479,186.180008 
	C119.943619,181.495529 124.029716,177.280457 122.585884,171.236877 
	C122.127312,169.317368 120.252342,167.736221 119.025520,166.000244 
	C117.648987,167.377960 115.613777,168.517242 115.013367,170.175903 
	C112.773125,176.364578 109.549538,181.582108 104.682556,186.233185 
	C101.209396,189.552261 98.604439,194.218719 96.806053,198.757065 
	C93.404938,207.340012 88.306000,213.055786 78.641708,214.257858 
	C74.109421,214.821594 69.729149,216.607452 65.345665,217.821289 
	C49.359875,185.159698 68.752281,111.250641 98.807991,91.035011 
	C104.531624,97.785507 110.663925,104.334625 115.910622,111.529549 
	C118.127159,114.569145 118.407593,118.993057 119.699303,122.742531 
	C120.931915,126.320480 121.419479,130.722046 123.830307,133.223801 
	C131.968842,141.669189 133.592926,152.565247 136.532883,163.035233 
	C137.027298,164.796051 137.208771,166.779160 138.176712,168.231903 
	C139.015091,169.490204 140.764206,170.141708 142.110764,171.061417 
	C142.464935,169.617706 143.303650,168.096985 143.088608,166.743744 
	C142.202545,161.168350 140.963882,155.649887 139.932907,150.095993 
	C139.697220,148.826370 139.772141,147.499100 139.627457,144.733658 
	C141.272766,146.531586 142.201736,147.274536 142.785721,148.228638 
	C146.861038,154.886810 150.863724,161.589432 154.893005,168.275803 
	C155.492874,169.271225 155.890564,170.603729 156.772934,171.161407 
	C157.985703,171.927887 159.571579,172.104034 160.997589,172.533112 
	C161.096634,171.068008 161.745834,169.347855 161.204315,168.179703 
	C157.999451,161.266327 154.472321,154.503143 151.169525,147.633698 
	C150.525009,146.293137 150.390625,144.707321 150.020950,143.234619 
	C150.819336,142.618942 151.617737,142.003265 152.416122,141.387589 
	C153.333786,143.091354 154.086365,144.912308 155.198029,146.478378 
	C159.722839,152.852676 164.185349,159.287231 169.073914,165.375946 
	C170.285965,166.885559 173.613373,168.424957 174.920670,167.790787 
	C178.226517,166.187119 176.593079,163.346405 174.979568,161.086166 
	C170.344650,154.593399 165.626511,148.159866 161.016510,141.649612 
	C159.755539,139.868866 158.760284,137.899948 157.643082,136.017395 
	C158.028992,135.616516 158.414902,135.215652 158.800812,134.814774 
	C161.169250,136.321182 163.664139,137.663361 165.879272,139.368881 
	C170.227264,142.716583 174.396652,146.295258 178.691467,149.713623 
	C179.843079,150.630219 181.120789,151.816086 182.448196,151.974014 
	C184.046722,152.164200 185.760025,151.389786 187.423630,151.032944 
	C186.902588,149.578354 186.799774,147.662918 185.790176,146.746613 
	C180.619156,142.053406 174.955963,137.882080 169.972092,133.009460 
	C165.870789,128.999695 162.239502,124.433807 158.922623,119.744644 
	C157.970932,118.399185 158.163361,115.335167 159.102692,113.879791 
	C159.732880,112.903412 162.652756,113.016830 164.458481,113.273483 
	C167.564529,113.714943 170.573822,114.817253 173.676468,115.310364 
	C175.438354,115.590393 177.626175,115.790833 179.053040,115.000114 
	C181.503662,113.642052 183.508865,111.480202 185.701035,109.655762 
	C183.415405,108.527443 180.969818,106.198654 178.871750,106.478188 
	C169.683609,107.702316 163.142487,100.723175 154.857986,99.451721 
	C150.107117,98.722580 145.375916,97.865936 140.632278,97.088684 
	C136.147568,96.353851 132.420731,94.483604 130.039917,89.953537 
z"/>
</svg>