<svg version="1.1" id="Layer_1" xmlns="http://www.w3.org/2000/svg" xmlns:xlink="http://www.w3.org/1999/xlink" x="0px" y="0px"
	 width="100%" viewBox="0 0 336 288" enable-background="new 0 0 336 288" xml:space="preserve">
<path fill="#44257D" opacity="1.000000" stroke="none" 
	d="
M1.000000,217.333328 
	C18.968143,203.717789 39.449883,200.372879 61.150814,201.652817 
	C64.034042,201.822876 65.486183,202.728897 65.385208,205.763962 
	C65.341644,207.073563 65.653564,208.411041 65.920532,209.711945 
	C66.771545,213.858978 65.277504,215.450775 60.926125,215.248535 
	C54.776947,214.962753 48.601318,215.208481 42.437859,215.291214 
	C40.650448,215.315216 38.733894,215.092285 37.671001,216.318344 
	C47.657890,226.480164 57.602772,236.599243 67.865234,247.041473 
	C69.281548,243.209122 69.404945,239.237305 69.552330,235.416183 
	C70.046951,222.592316 68.745735,209.812363 68.121605,197.015930 
	C66.461487,162.978333 76.323715,134.568344 107.420921,116.517349 
	C111.340332,114.242264 115.556290,112.710083 119.856079,111.372025 
	C126.172379,109.406441 126.124481,109.426056 124.485016,102.788063 
	C118.739807,79.526398 122.419823,57.833988 135.955505,38.069244 
	C154.056091,11.638845 185.988190,-0.308711 218.608871,6.778086 
	C248.201553,13.207053 272.281097,38.752136 277.329041,69.376450 
	C280.198151,86.782372 278.149841,103.583839 269.641388,119.236443 
	C267.804749,122.615257 268.074219,124.625092 270.836853,127.353104 
	C290.402039,146.673050 309.815613,166.147003 329.218994,185.630173 
	C340.855682,197.314758 337.676544,214.784470 322.735291,220.203308 
	C314.082397,223.341537 306.418854,220.865936 299.940247,214.367676 
	C280.292084,194.659882 260.551666,175.043747 240.979462,155.261032 
	C238.630386,152.886703 236.996429,152.330261 233.766159,153.835327 
	C215.880600,162.168671 197.300522,163.791946 178.330063,158.146362 
	C174.080902,156.881821 172.900055,158.232834 171.793106,162.062363 
	C164.820374,186.184753 149.808075,203.203110 126.165909,212.100433 
	C114.488876,216.494873 102.240448,217.604828 89.817253,217.116684 
	C86.270714,216.977341 84.673225,215.323563 84.826019,211.798599 
	C84.933197,209.326263 84.347000,206.824692 85.172867,204.121384 
	C92.313339,202.519958 99.976013,205.219513 107.486794,202.209915 
	C98.748169,193.976776 90.377190,186.090027 81.862267,178.067657 
	C80.891426,178.904938 81.410362,181.180084 81.339241,183.248306 
	C80.720482,201.242935 82.957809,219.179703 82.372314,237.183716 
	C81.878868,252.357010 77.494904,266.261230 69.786819,279.249756 
	C67.776611,282.637054 65.846809,283.610352 63.097290,280.116333 
	C62.483906,279.336884 61.762554,278.596497 60.960560,278.019226 
	C57.296364,275.381744 56.965931,272.791168 59.792431,268.937134 
	C64.338234,262.738739 64.038414,262.548401 58.737782,257.101562 
	C48.045662,246.114487 37.268925,235.206390 26.762541,224.044113 
	C23.840191,220.939301 21.259596,220.207687 17.778065,222.649948 
	C16.831823,223.313721 15.575466,223.573425 14.713282,224.312408 
	C11.048224,227.453781 8.263279,226.547653 5.691306,222.815857 
	C4.681544,221.350723 3.432511,219.907806 1.323876,219.094666 
	C1.000000,218.555557 1.000000,218.111099 1.000000,217.333328 
M183.175156,12.687849 
	C146.617691,22.540445 123.622475,56.073402 128.420532,92.534149 
	C133.652100,132.289124 170.912872,160.781799 210.984558,154.395721 
	C241.008896,149.610886 261.244293,131.804443 269.602783,102.495567 
	C277.728943,74.001343 270.021149,48.987000 248.190720,29.057425 
	C229.946304,12.401605 207.999054,7.900782 183.175156,12.687849 
M144.827393,150.668808 
	C137.713715,143.180481 130.620987,135.671997 123.465660,128.223679 
	C122.274834,126.984085 121.287743,125.022583 118.958755,125.944679 
	C113.061646,128.279480 107.934685,131.727570 102.900490,136.285172 
	C117.723358,151.788696 132.015961,166.737610 146.471741,181.857193 
	C150.491196,177.328262 153.185608,173.163803 155.461151,168.703979 
	C156.996307,165.695236 156.865906,163.150528 154.215759,160.644043 
	C151.075317,157.673828 148.266586,154.352890 144.827393,150.668808 
M85.651581,160.991623 
	C84.850983,163.010498 85.724419,164.411804 87.163177,165.814743 
	C97.868225,176.253204 108.525146,186.741074 119.188400,197.222351 
	C120.399139,198.412460 121.568153,199.639908 123.502068,198.828018 
	C128.827927,196.592163 134.039337,194.172562 138.558884,189.655212 
	C124.051613,174.449173 109.802917,159.514191 95.336205,144.350677 
	C90.547874,149.328247 88.088768,154.722626 85.651581,160.991623 
z"/>
<path fill="#44257D" opacity="1.000000" stroke="none" 
	d="
M248.012268,59.186768 
	C262.856537,90.844139 245.983261,125.846687 213.916077,134.633896 
	C184.685211,142.643860 155.110596,124.626060 148.097092,94.386299 
	C141.388107,65.459488 161.032272,35.732113 190.228195,30.629595 
	C214.302231,26.422222 235.751495,36.925976 248.012268,59.186768 
M176.657257,43.145916 
	C186.508667,49.217506 187.016571,51.081772 181.481522,60.774784 
	C180.986450,61.641750 180.632767,62.600597 180.064529,63.412598 
	C178.203064,66.072617 178.766968,68.058243 181.110413,70.292404 
	C190.395081,79.144051 199.515686,88.168190 208.670441,97.155540 
	C216.867661,105.202881 216.852249,105.218658 227.083435,99.895676 
	C227.231171,99.818810 227.369293,99.722023 227.520416,99.653259 
	C233.001236,97.159317 234.320496,102.521385 236.811203,104.986382 
	C239.516617,107.663887 236.066376,108.979561 234.393021,110.181557 
	C219.740601,120.706642 203.161026,124.602402 185.367828,124.111244 
	C176.632385,123.870132 176.687561,123.716125 176.617676,114.907730 
	C176.587540,111.110786 177.797379,110.117836 181.597504,110.376694 
	C188.649002,110.857018 195.826004,111.570282 201.766357,109.248688 
	C192.565460,100.158203 183.260101,90.964531 174.139511,81.953400 
	C174.212891,81.775917 173.672928,82.519890 173.618378,83.297897 
	C172.743225,95.776855 172.740479,108.242317 174.323212,120.679131 
	C174.571121,122.627319 175.958405,123.466217 177.427597,124.286972 
	C187.715500,130.034256 198.614746,131.875702 210.162811,129.282455 
	C231.145996,124.570473 246.657364,106.555000 247.516769,84.768333 
	C248.303543,64.823456 236.482956,45.526215 215.481567,38.321331 
	C201.717621,33.599377 188.347473,34.497849 175.360306,43.215916 
	C154.042633,55.723763 144.999359,90.998177 159.596939,105.133568 
	C159.676270,96.083183 159.643127,87.133446 161.235062,78.228477 
	C163.539337,65.338783 169.556610,54.093613 176.657257,43.145916 
z"/>
</svg>